<svg xmlns="http://www.w3.org/2000/svg" width="40.001" height="40.001" fill="#00425e"><path d="M39.443 13.19c-6.676 3.703-7.215 1.273-7.125-.808-1.178.578-5.913 5.049-6.951 6.171.735-2.547 1.7-11.237 1.48-11.456C22.899 11.114 20 0 20 0s-2.897 11.114-6.847 7.097c-.222.219.743 8.909 1.481 11.456-1.038-1.122-5.77-5.593-6.95-6.171.086 2.082-.45 4.511-7.126.808 1.658 1.969 8.022 9.57.598 7.792.984 1.273 4.693 4.398 8.8 5.667-3.805 1.082-4.397 1.621-5.297 3.091.948-.421 4.544-1.778.225 3.933 1.767-.578 7.015-2.968 4.603 2.508.561-.348 5.495-3.663 6.867-5.016.915-.897 2.23-1.061 3.007-1.071l-.306 9.907h1.891l-.306-9.907c.774.011 2.092.174 3.007 1.071 1.372 1.353 6.304 4.668 6.864 5.016-2.412-5.476 2.839-3.086 4.606-2.508-4.32-5.711-.724-4.354.224-3.933-.903-1.47-1.493-2.009-5.297-3.091 4.102-1.269 7.815-4.394 8.803-5.667-7.428 1.778-1.066-5.823.595-7.792z"/></svg>